<mxfile host="app.diagrams.net" agent="Mozilla/5.0 (Windows NT 10.0; Win64; x64) AppleWebKit/537.36 (KHTML, like Gecko) Chrome/138.0.0.0 Safari/537.36" version="27.0.8">
  <diagram name="Página-1" id="BXY0y0X91AKVIfJ_eG5s">
    <mxGraphModel grid="0" page="1" gridSize="10" guides="1" tooltips="1" connect="1" arrows="1" fold="1" pageScale="1" pageWidth="827" pageHeight="1169" math="0" shadow="0">
      <root>
        <mxCell id="0" />
        <mxCell id="1" parent="0" />
        <mxCell id="AYDeT9yCGTaLC1cTmOf2-126" value="Restaurante" style="swimlane;fontStyle=1;align=center;verticalAlign=top;childLayout=stackLayout;horizontal=1;startSize=26;horizontalStack=0;resizeParent=1;resizeParentMax=0;resizeLast=0;collapsible=1;marginBottom=0;whiteSpace=wrap;html=1;" vertex="1" parent="1">
          <mxGeometry x="226" y="329.16" width="258" height="80" as="geometry" />
        </mxCell>
        <mxCell id="AYDeT9yCGTaLC1cTmOf2-127" value="&lt;b&gt;PK: idRestaurante&lt;/b&gt;&lt;div&gt;&lt;span style=&quot;white-space: pre;&quot;&gt;&#x9;&lt;/span&gt;nombre&amp;nbsp;&lt;u style=&quot;background-color: transparent; color: light-dark(rgb(0, 0, 0), rgb(255, 255, 255));&quot;&gt;VARCHAR(100)&lt;/u&gt;&lt;/div&gt;&lt;div&gt;&lt;span style=&quot;white-space: pre;&quot;&gt;&#x9;&lt;/span&gt;numeroContacto&amp;nbsp;&lt;u style=&quot;background-color: transparent; color: light-dark(rgb(0, 0, 0), rgb(255, 255, 255));&quot;&gt;VARCHAR(20)&lt;/u&gt;&lt;br&gt;&lt;/div&gt;" style="text;strokeColor=none;fillColor=none;align=left;verticalAlign=top;spacingLeft=4;spacingRight=4;overflow=hidden;rotatable=0;points=[[0,0.5],[1,0.5]];portConstraint=eastwest;whiteSpace=wrap;html=1;" vertex="1" parent="AYDeT9yCGTaLC1cTmOf2-126">
          <mxGeometry y="26" width="258" height="54" as="geometry" />
        </mxCell>
        <mxCell id="AYDeT9yCGTaLC1cTmOf2-130" value="Manager" style="swimlane;fontStyle=1;align=center;verticalAlign=top;childLayout=stackLayout;horizontal=1;startSize=26;horizontalStack=0;resizeParent=1;resizeParentMax=0;resizeLast=0;collapsible=1;marginBottom=0;whiteSpace=wrap;html=1;" vertex="1" parent="1">
          <mxGeometry x="563" y="329.16" width="225" height="97" as="geometry">
            <mxRectangle x="310" y="35" width="90" height="30" as="alternateBounds" />
          </mxGeometry>
        </mxCell>
        <mxCell id="AYDeT9yCGTaLC1cTmOf2-131" value="&lt;b&gt;PK: idManager&lt;/b&gt;&lt;div&gt;&lt;span style=&quot;background-color: transparent; color: light-dark(rgb(0, 0, 0), rgb(255, 255, 255));&quot;&gt;&lt;span style=&quot;white-space: pre;&quot;&gt;&#x9;&lt;/span&gt;nombre&amp;nbsp;&lt;/span&gt;&lt;u style=&quot;background-color: transparent; color: light-dark(rgb(0, 0, 0), rgb(255, 255, 255));&quot;&gt;VARCHAR(100)&lt;/u&gt;&lt;/div&gt;&lt;div&gt;&lt;span style=&quot;background-color: transparent; color: light-dark(rgb(0, 0, 0), rgb(255, 255, 255));&quot;&gt;&lt;span style=&quot;white-space: pre;&quot;&gt;&#x9;&lt;/span&gt;numeroContacto&amp;nbsp;&lt;/span&gt;&lt;u style=&quot;background-color: transparent; color: light-dark(rgb(0, 0, 0), rgb(255, 255, 255));&quot;&gt;VARCHAR(20)&lt;/u&gt;&lt;span style=&quot;background-color: transparent; color: light-dark(rgb(0, 0, 0), rgb(255, 255, 255));&quot;&gt;&lt;br&gt;&lt;/span&gt;&lt;/div&gt;&lt;div&gt;&lt;b style=&quot;background-color: transparent; color: light-dark(rgb(0, 0, 0), rgb(255, 255, 255));&quot;&gt;FK: idRestaurante&lt;/b&gt;&lt;/div&gt;" style="text;strokeColor=none;fillColor=none;align=left;verticalAlign=top;spacingLeft=4;spacingRight=4;overflow=hidden;rotatable=0;points=[[0,0.5],[1,0.5]];portConstraint=eastwest;whiteSpace=wrap;html=1;" vertex="1" parent="AYDeT9yCGTaLC1cTmOf2-130">
          <mxGeometry y="26" width="225" height="71" as="geometry" />
        </mxCell>
        <mxCell id="AYDeT9yCGTaLC1cTmOf2-149" value="" style="endArrow=classicThin;html=1;rounded=0;exitX=1.003;exitY=0.423;exitDx=0;exitDy=0;entryX=0;entryY=0.395;entryDx=0;entryDy=0;endFill=1;exitPerimeter=0;entryPerimeter=0;" edge="1" parent="1" source="AYDeT9yCGTaLC1cTmOf2-127" target="AYDeT9yCGTaLC1cTmOf2-131">
          <mxGeometry relative="1" as="geometry">
            <mxPoint x="580" y="595" as="sourcePoint" />
            <mxPoint x="740" y="595" as="targetPoint" />
          </mxGeometry>
        </mxCell>
        <mxCell id="AYDeT9yCGTaLC1cTmOf2-150" value="1" style="resizable=0;html=1;whiteSpace=wrap;align=left;verticalAlign=bottom;fontStyle=1" connectable="0" vertex="1" parent="AYDeT9yCGTaLC1cTmOf2-149">
          <mxGeometry x="-1" relative="1" as="geometry" />
        </mxCell>
        <mxCell id="AYDeT9yCGTaLC1cTmOf2-151" value="N" style="resizable=0;html=1;whiteSpace=wrap;align=right;verticalAlign=bottom;fontStyle=1" connectable="0" vertex="1" parent="AYDeT9yCGTaLC1cTmOf2-149">
          <mxGeometry x="1" relative="1" as="geometry" />
        </mxCell>
        <mxCell id="AYDeT9yCGTaLC1cTmOf2-152" value="Orden" style="swimlane;fontStyle=1;align=center;verticalAlign=top;childLayout=stackLayout;horizontal=1;startSize=26;horizontalStack=0;resizeParent=1;resizeParentMax=0;resizeLast=0;collapsible=1;marginBottom=0;whiteSpace=wrap;html=1;" vertex="1" parent="1">
          <mxGeometry x="838" y="389" width="160" height="132" as="geometry">
            <mxRectangle x="560" y="35" width="70" height="30" as="alternateBounds" />
          </mxGeometry>
        </mxCell>
        <mxCell id="AYDeT9yCGTaLC1cTmOf2-153" value="&lt;b&gt;PK: idOrden&lt;/b&gt;&lt;div&gt;&lt;span style=&quot;white-space: pre;&quot;&gt;&#x9;&lt;/span&gt;numeroItems &lt;u&gt;INT&lt;/u&gt;&lt;/div&gt;&lt;div&gt;&lt;b&gt;FK: idCliente &lt;u&gt;INT&lt;/u&gt;&lt;/b&gt;&lt;/div&gt;&lt;div&gt;&lt;b&gt;FK: idMesero&amp;nbsp;&lt;/b&gt;&lt;b&gt;&lt;/b&gt;&lt;b style=&quot;background-color: transparent; color: light-dark(rgb(0, 0, 0), rgb(255, 255, 255));&quot;&gt;&lt;u&gt;INT&lt;/u&gt;&lt;/b&gt;&lt;/div&gt;&lt;div&gt;&lt;b&gt;FK: idChef&amp;nbsp;&lt;/b&gt;&lt;b&gt;&lt;/b&gt;&lt;b style=&quot;background-color: transparent; color: light-dark(rgb(0, 0, 0), rgb(255, 255, 255));&quot;&gt;&lt;u&gt;INT&lt;/u&gt;&lt;/b&gt;&lt;/div&gt;" style="text;strokeColor=none;fillColor=none;align=left;verticalAlign=top;spacingLeft=4;spacingRight=4;overflow=hidden;rotatable=0;points=[[0,0.5],[1,0.5]];portConstraint=eastwest;whiteSpace=wrap;html=1;" vertex="1" parent="AYDeT9yCGTaLC1cTmOf2-152">
          <mxGeometry y="26" width="160" height="106" as="geometry" />
        </mxCell>
        <mxCell id="AYDeT9yCGTaLC1cTmOf2-163" value="Chef" style="swimlane;fontStyle=1;align=center;verticalAlign=top;childLayout=stackLayout;horizontal=1;startSize=26;horizontalStack=0;resizeParent=1;resizeParentMax=0;resizeLast=0;collapsible=1;marginBottom=0;whiteSpace=wrap;html=1;" vertex="1" parent="1">
          <mxGeometry x="487" y="522" width="193" height="87" as="geometry">
            <mxRectangle x="567" y="527" width="70" height="30" as="alternateBounds" />
          </mxGeometry>
        </mxCell>
        <mxCell id="AYDeT9yCGTaLC1cTmOf2-164" value="&lt;b&gt;PK: idChef&lt;/b&gt;&lt;div&gt;&lt;span style=&quot;background-color: transparent; color: light-dark(rgb(0, 0, 0), rgb(255, 255, 255));&quot;&gt;&lt;span style=&quot;white-space: pre;&quot;&gt;&#x9;&lt;/span&gt;nombre&amp;nbsp;&lt;/span&gt;&lt;u style=&quot;background-color: transparent; color: light-dark(rgb(0, 0, 0), rgb(255, 255, 255));&quot;&gt;VARCHAR(100)&lt;/u&gt;&lt;/div&gt;&lt;div&gt;&lt;span style=&quot;background-color: transparent; color: light-dark(rgb(0, 0, 0), rgb(255, 255, 255));&quot;&gt;&lt;b style=&quot;&quot;&gt;FK: idRestaurante&lt;/b&gt;&lt;/span&gt;&lt;/div&gt;" style="text;strokeColor=none;fillColor=none;align=left;verticalAlign=top;spacingLeft=4;spacingRight=4;overflow=hidden;rotatable=0;points=[[0,0.5],[1,0.5]];portConstraint=eastwest;whiteSpace=wrap;html=1;" vertex="1" parent="AYDeT9yCGTaLC1cTmOf2-163">
          <mxGeometry y="26" width="193" height="61" as="geometry" />
        </mxCell>
        <mxCell id="AYDeT9yCGTaLC1cTmOf2-166" value="Item" style="swimlane;fontStyle=1;align=center;verticalAlign=top;childLayout=stackLayout;horizontal=1;startSize=26;horizontalStack=0;resizeParent=1;resizeParentMax=0;resizeLast=0;collapsible=1;marginBottom=0;whiteSpace=wrap;html=1;" vertex="1" parent="1">
          <mxGeometry x="1304" y="225" width="210" height="89" as="geometry">
            <mxRectangle x="560" y="35" width="70" height="30" as="alternateBounds" />
          </mxGeometry>
        </mxCell>
        <mxCell id="AYDeT9yCGTaLC1cTmOf2-167" value="&lt;b&gt;PK: idItem&lt;br&gt;&lt;/b&gt;&lt;div&gt;&lt;span style=&quot;font-weight: bold; white-space: pre;&quot;&gt;&#x9;&lt;/span&gt;descripción&amp;nbsp;&lt;u style=&quot;background-color: transparent; color: light-dark(rgb(0, 0, 0), rgb(255, 255, 255));&quot;&gt;VARCHAR(255&lt;/u&gt;&lt;u style=&quot;background-color: transparent; color: light-dark(rgb(0, 0, 0), rgb(255, 255, 255));&quot;&gt;)&lt;/u&gt;&lt;br&gt;&lt;/div&gt;&lt;div&gt;&lt;span style=&quot;background-color: transparent; color: light-dark(rgb(0, 0, 0), rgb(255, 255, 255));&quot;&gt;&lt;span style=&quot;text-decoration-line: underline; white-space: pre;&quot;&gt;&#x9;&lt;/span&gt;precio &lt;u&gt;DECIMAL&lt;/u&gt;&lt;br&gt;&lt;/span&gt;&lt;/div&gt;" style="text;strokeColor=none;fillColor=none;align=left;verticalAlign=top;spacingLeft=4;spacingRight=4;overflow=hidden;rotatable=0;points=[[0,0.5],[1,0.5]];portConstraint=eastwest;whiteSpace=wrap;html=1;" vertex="1" parent="AYDeT9yCGTaLC1cTmOf2-166">
          <mxGeometry y="26" width="210" height="63" as="geometry" />
        </mxCell>
        <mxCell id="AYDeT9yCGTaLC1cTmOf2-172" value="" style="group" connectable="0" vertex="1" parent="1">
          <mxGeometry x="676" y="426.15999999999997" width="24" as="geometry" />
        </mxCell>
        <mxCell id="AYDeT9yCGTaLC1cTmOf2-168" value="" style="endArrow=classicThin;html=1;rounded=0;entryX=0.5;entryY=0;entryDx=0;entryDy=0;endFill=1;exitX=1;exitY=0.993;exitDx=0;exitDy=0;exitPerimeter=0;" edge="1" parent="1" source="AYDeT9yCGTaLC1cTmOf2-127" target="AYDeT9yCGTaLC1cTmOf2-163">
          <mxGeometry x="-0.0027" relative="1" as="geometry">
            <mxPoint x="680" y="409" as="sourcePoint" />
            <mxPoint x="859.9993612979151" y="454.9965586913145" as="targetPoint" />
            <mxPoint as="offset" />
          </mxGeometry>
        </mxCell>
        <mxCell id="AYDeT9yCGTaLC1cTmOf2-169" value="1" style="resizable=0;html=1;whiteSpace=wrap;align=right;verticalAlign=middle;fontStyle=1;fontSize=12;labelPosition=left;verticalLabelPosition=middle;spacingLeft=0;spacingBottom=-20;spacingRight=3;" connectable="0" vertex="1" parent="AYDeT9yCGTaLC1cTmOf2-168">
          <mxGeometry x="-1" relative="1" as="geometry" />
        </mxCell>
        <mxCell id="AYDeT9yCGTaLC1cTmOf2-170" value="N" style="resizable=0;html=1;whiteSpace=wrap;align=right;verticalAlign=bottom;fontStyle=1" connectable="0" vertex="1" parent="AYDeT9yCGTaLC1cTmOf2-168">
          <mxGeometry x="1" relative="1" as="geometry">
            <mxPoint x="1" y="-10" as="offset" />
          </mxGeometry>
        </mxCell>
        <mxCell id="AYDeT9yCGTaLC1cTmOf2-173" value="Mesero" style="swimlane;fontStyle=1;align=center;verticalAlign=top;childLayout=stackLayout;horizontal=1;startSize=26;horizontalStack=0;resizeParent=1;resizeParentMax=0;resizeLast=0;collapsible=1;marginBottom=0;whiteSpace=wrap;html=1;" vertex="1" parent="1">
          <mxGeometry x="1144" y="522" width="185" height="70" as="geometry">
            <mxRectangle x="560" y="35" width="70" height="30" as="alternateBounds" />
          </mxGeometry>
        </mxCell>
        <mxCell id="AYDeT9yCGTaLC1cTmOf2-174" value="&lt;b&gt;PK: idMesero&lt;/b&gt;&lt;div&gt;&lt;span style=&quot;white-space: pre;&quot;&gt;&#x9;&lt;/span&gt;nombre&amp;nbsp;&lt;u style=&quot;background-color: transparent; color: light-dark(rgb(0, 0, 0), rgb(255, 255, 255));&quot;&gt;VARCHAR (100)&lt;/u&gt;&lt;/div&gt;" style="text;strokeColor=none;fillColor=none;align=left;verticalAlign=top;spacingLeft=4;spacingRight=4;overflow=hidden;rotatable=0;points=[[0,0.5],[1,0.5]];portConstraint=eastwest;whiteSpace=wrap;html=1;" vertex="1" parent="AYDeT9yCGTaLC1cTmOf2-173">
          <mxGeometry y="26" width="185" height="44" as="geometry" />
        </mxCell>
        <mxCell id="AgZVTCcGgScrFRUxfFw7-1" value="" style="endArrow=classic;html=1;rounded=0;endFill=1;entryX=0;entryY=0.5;entryDx=0;entryDy=0;exitX=1.001;exitY=0.407;exitDx=0;exitDy=0;exitPerimeter=0;startFill=1;startArrow=classicThin;" edge="1" parent="1" source="AYDeT9yCGTaLC1cTmOf2-164" target="AYDeT9yCGTaLC1cTmOf2-153">
          <mxGeometry relative="1" as="geometry">
            <mxPoint x="760" y="525" as="sourcePoint" />
            <mxPoint x="840" y="647" as="targetPoint" />
            <Array as="points" />
          </mxGeometry>
        </mxCell>
        <mxCell id="AgZVTCcGgScrFRUxfFw7-2" value="1" style="resizable=0;html=1;whiteSpace=wrap;align=left;verticalAlign=bottom;fontStyle=1" connectable="0" vertex="1" parent="AgZVTCcGgScrFRUxfFw7-1">
          <mxGeometry x="-1" relative="1" as="geometry">
            <mxPoint y="-11" as="offset" />
          </mxGeometry>
        </mxCell>
        <mxCell id="AgZVTCcGgScrFRUxfFw7-3" value="N" style="resizable=0;html=1;whiteSpace=wrap;align=right;verticalAlign=bottom;fontStyle=1" connectable="0" vertex="1" parent="AgZVTCcGgScrFRUxfFw7-1">
          <mxGeometry x="1" relative="1" as="geometry" />
        </mxCell>
        <mxCell id="AgZVTCcGgScrFRUxfFw7-6" value="" style="endArrow=classicThin;html=1;rounded=0;endFill=1;exitX=1;exitY=0.5;exitDx=0;exitDy=0;entryX=-0.001;entryY=0.328;entryDx=0;entryDy=0;entryPerimeter=0;startArrow=classicThin;startFill=1;" edge="1" parent="1" source="AYDeT9yCGTaLC1cTmOf2-153" target="AYDeT9yCGTaLC1cTmOf2-174">
          <mxGeometry x="-0.2289" relative="1" as="geometry">
            <mxPoint x="1000" y="496" as="sourcePoint" />
            <mxPoint x="1090" y="445" as="targetPoint" />
            <Array as="points" />
            <mxPoint as="offset" />
          </mxGeometry>
        </mxCell>
        <mxCell id="AgZVTCcGgScrFRUxfFw7-7" value="N" style="resizable=0;html=1;whiteSpace=wrap;align=left;verticalAlign=bottom;fontStyle=1" connectable="0" vertex="1" parent="AgZVTCcGgScrFRUxfFw7-6">
          <mxGeometry x="-1" relative="1" as="geometry" />
        </mxCell>
        <mxCell id="AgZVTCcGgScrFRUxfFw7-8" value="1" style="resizable=0;html=1;whiteSpace=wrap;align=right;verticalAlign=bottom;fontStyle=1" connectable="0" vertex="1" parent="AgZVTCcGgScrFRUxfFw7-6">
          <mxGeometry x="1" relative="1" as="geometry" />
        </mxCell>
        <mxCell id="AgZVTCcGgScrFRUxfFw7-12" value="Cliente" style="swimlane;fontStyle=1;align=center;verticalAlign=top;childLayout=stackLayout;horizontal=1;startSize=26;horizontalStack=0;resizeParent=1;resizeParentMax=0;resizeLast=0;collapsible=1;marginBottom=0;whiteSpace=wrap;html=1;" vertex="1" parent="1">
          <mxGeometry x="1094" y="685" width="224" height="111" as="geometry">
            <mxRectangle x="560" y="35" width="70" height="30" as="alternateBounds" />
          </mxGeometry>
        </mxCell>
        <mxCell id="AgZVTCcGgScrFRUxfFw7-13" value="&lt;b&gt;PK: idContacto&lt;/b&gt;&lt;div&gt;&lt;span style=&quot;white-space: pre;&quot;&gt;&#x9;&lt;/span&gt;nombre&amp;nbsp;&lt;u&gt;VARCHAR (100)&lt;/u&gt;&lt;/div&gt;&lt;div&gt;&lt;span style=&quot;font-weight: bold; white-space: pre;&quot;&gt;&#x9;&lt;/span&gt;dirección&amp;nbsp;&lt;span style=&quot;background-color: transparent; color: light-dark(rgb(0, 0, 0), rgb(255, 255, 255));&quot;&gt;&lt;u&gt;VARCHAR (255)&lt;/u&gt;&lt;/span&gt;&lt;/div&gt;&lt;div&gt;&lt;span style=&quot;background-color: transparent; color: light-dark(rgb(0, 0, 0), rgb(255, 255, 255));&quot;&gt;&lt;span style=&quot;white-space: pre;&quot;&gt;&#x9;&lt;/span&gt;numeroContacto&amp;nbsp;&lt;/span&gt;&lt;span style=&quot;background-color: transparent; color: light-dark(rgb(0, 0, 0), rgb(255, 255, 255));&quot;&gt;&lt;u&gt;VARCHAR (20)&lt;/u&gt;&lt;/span&gt;&lt;/div&gt;" style="text;strokeColor=none;fillColor=none;align=left;verticalAlign=top;spacingLeft=4;spacingRight=4;overflow=hidden;rotatable=0;points=[[0,0.5],[1,0.5]];portConstraint=eastwest;whiteSpace=wrap;html=1;" vertex="1" parent="AgZVTCcGgScrFRUxfFw7-12">
          <mxGeometry y="26" width="224" height="85" as="geometry" />
        </mxCell>
        <mxCell id="AgZVTCcGgScrFRUxfFw7-15" value="" style="endArrow=classicThin;html=1;rounded=0;endFill=1;entryX=0.5;entryY=0;entryDx=0;entryDy=0;exitX=0.5;exitY=1;exitDx=0;exitDy=0;" edge="1" parent="1" target="AgZVTCcGgScrFRUxfFw7-12" source="AYDeT9yCGTaLC1cTmOf2-173">
          <mxGeometry x="0.0103" relative="1" as="geometry">
            <mxPoint x="1170" y="565" as="sourcePoint" />
            <mxPoint x="1060" y="637" as="targetPoint" />
            <mxPoint as="offset" />
          </mxGeometry>
        </mxCell>
        <mxCell id="AgZVTCcGgScrFRUxfFw7-16" value="N" style="resizable=0;html=1;whiteSpace=wrap;align=left;verticalAlign=bottom;fontStyle=1;spacingTop=0;spacingBottom=-17;spacingLeft=-12;" connectable="0" vertex="1" parent="AgZVTCcGgScrFRUxfFw7-15">
          <mxGeometry x="-1" relative="1" as="geometry">
            <mxPoint x="-4" y="4" as="offset" />
          </mxGeometry>
        </mxCell>
        <mxCell id="AgZVTCcGgScrFRUxfFw7-17" value="M" style="resizable=0;html=1;whiteSpace=wrap;align=right;verticalAlign=bottom;fontStyle=1;spacingLeft=0;spacingRight=2;" connectable="0" vertex="1" parent="AgZVTCcGgScrFRUxfFw7-15">
          <mxGeometry x="1" relative="1" as="geometry" />
        </mxCell>
        <mxCell id="AgZVTCcGgScrFRUxfFw7-18" value="Usuario" style="swimlane;fontStyle=1;align=center;verticalAlign=top;childLayout=stackLayout;horizontal=1;startSize=26;horizontalStack=0;resizeParent=1;resizeParentMax=0;resizeLast=0;collapsible=1;marginBottom=0;whiteSpace=wrap;html=1;" vertex="1" parent="1">
          <mxGeometry x="1085" y="842" width="242" height="87" as="geometry">
            <mxRectangle x="560" y="35" width="70" height="30" as="alternateBounds" />
          </mxGeometry>
        </mxCell>
        <mxCell id="AgZVTCcGgScrFRUxfFw7-19" value="&lt;b&gt;PK: idUsuario&lt;/b&gt;&lt;div&gt;&lt;span style=&quot;font-weight: bold; white-space: pre;&quot;&gt;&#x9;&lt;/span&gt;nombre&amp;nbsp;&lt;u&gt;VARCHAR (100)&lt;/u&gt;&lt;/div&gt;" style="text;strokeColor=none;fillColor=none;align=left;verticalAlign=top;spacingLeft=4;spacingRight=4;overflow=hidden;rotatable=0;points=[[0,0.5],[1,0.5]];portConstraint=eastwest;whiteSpace=wrap;html=1;" vertex="1" parent="AgZVTCcGgScrFRUxfFw7-18">
          <mxGeometry y="26" width="242" height="61" as="geometry" />
        </mxCell>
        <mxCell id="AgZVTCcGgScrFRUxfFw7-21" value="" style="endArrow=classicThin;html=1;rounded=0;endFill=1;entryX=0.5;entryY=0;entryDx=0;entryDy=0;exitX=0.5;exitY=1;exitDx=0;exitDy=0;" edge="1" parent="1" target="AgZVTCcGgScrFRUxfFw7-18" source="AgZVTCcGgScrFRUxfFw7-12">
          <mxGeometry x="0.0011" relative="1" as="geometry">
            <mxPoint x="1173" y="717" as="sourcePoint" />
            <mxPoint x="1180" y="630" as="targetPoint" />
            <mxPoint as="offset" />
          </mxGeometry>
        </mxCell>
        <mxCell id="AgZVTCcGgScrFRUxfFw7-22" value="1" style="resizable=0;html=1;whiteSpace=wrap;align=left;verticalAlign=bottom;fontStyle=1;spacingTop=0;spacingBottom=-17;spacingLeft=-12;" connectable="0" vertex="1" parent="AgZVTCcGgScrFRUxfFw7-21">
          <mxGeometry x="-1" relative="1" as="geometry" />
        </mxCell>
        <mxCell id="AgZVTCcGgScrFRUxfFw7-23" value="1" style="resizable=0;html=1;whiteSpace=wrap;align=right;verticalAlign=bottom;fontStyle=1;spacingLeft=0;spacingRight=2;" connectable="0" vertex="1" parent="AgZVTCcGgScrFRUxfFw7-21">
          <mxGeometry x="1" relative="1" as="geometry" />
        </mxCell>
        <mxCell id="AgZVTCcGgScrFRUxfFw7-24" value="Cajero" style="swimlane;fontStyle=1;align=center;verticalAlign=top;childLayout=stackLayout;horizontal=1;startSize=26;horizontalStack=0;resizeParent=1;resizeParentMax=0;resizeLast=0;collapsible=1;marginBottom=0;whiteSpace=wrap;html=1;" vertex="1" parent="1">
          <mxGeometry x="272" y="842" width="189" height="84" as="geometry">
            <mxRectangle x="560" y="35" width="70" height="30" as="alternateBounds" />
          </mxGeometry>
        </mxCell>
        <mxCell id="AgZVTCcGgScrFRUxfFw7-25" value="&lt;b&gt;PK: idCajero&lt;/b&gt;&lt;div&gt;&lt;span style=&quot;white-space: pre;&quot;&gt;&#x9;&lt;/span&gt;nombre&amp;nbsp;&lt;u&gt;VARCHAR(100)&lt;/u&gt;&lt;/div&gt;&lt;div&gt;&lt;b&gt;FK: idRestaurante&lt;/b&gt;&lt;/div&gt;" style="text;strokeColor=none;fillColor=none;align=left;verticalAlign=top;spacingLeft=4;spacingRight=4;overflow=hidden;rotatable=0;points=[[0,0.5],[1,0.5]];portConstraint=eastwest;whiteSpace=wrap;html=1;" vertex="1" parent="AgZVTCcGgScrFRUxfFw7-24">
          <mxGeometry y="26" width="189" height="58" as="geometry" />
        </mxCell>
        <mxCell id="AgZVTCcGgScrFRUxfFw7-30" value="" style="endArrow=classicThin;html=1;rounded=0;exitX=0.55;exitY=1.026;exitDx=0;exitDy=0;entryX=0.5;entryY=0;entryDx=0;entryDy=0;endFill=1;exitPerimeter=0;startArrow=classicThin;startFill=1;" edge="1" parent="1" source="AYDeT9yCGTaLC1cTmOf2-127" target="AgZVTCcGgScrFRUxfFw7-24">
          <mxGeometry x="0.0005" relative="1" as="geometry">
            <mxPoint x="576" y="710" as="sourcePoint" />
            <mxPoint x="676" y="710" as="targetPoint" />
            <Array as="points" />
            <mxPoint as="offset" />
          </mxGeometry>
        </mxCell>
        <mxCell id="AgZVTCcGgScrFRUxfFw7-31" value="1" style="resizable=0;html=1;whiteSpace=wrap;align=left;verticalAlign=bottom;fontStyle=1;spacingTop=0;spacingBottom=-19;spacingRight=-1;spacingLeft=-15;" connectable="0" vertex="1" parent="AgZVTCcGgScrFRUxfFw7-30">
          <mxGeometry x="-1" relative="1" as="geometry" />
        </mxCell>
        <mxCell id="AgZVTCcGgScrFRUxfFw7-32" value="N" style="resizable=0;html=1;whiteSpace=wrap;align=right;verticalAlign=bottom;fontStyle=1" connectable="0" vertex="1" parent="AgZVTCcGgScrFRUxfFw7-30">
          <mxGeometry x="1" relative="1" as="geometry">
            <mxPoint x="-3" y="-7" as="offset" />
          </mxGeometry>
        </mxCell>
        <mxCell id="7Je8JfRFFsogZQXXaHUT-1" value="ReporteManager" style="swimlane;fontStyle=1;align=center;verticalAlign=top;childLayout=stackLayout;horizontal=1;startSize=26;horizontalStack=0;resizeParent=1;resizeParentMax=0;resizeLast=0;collapsible=1;marginBottom=0;whiteSpace=wrap;html=1;" vertex="1" parent="1">
          <mxGeometry x="755" y="178" width="225" height="97" as="geometry">
            <mxRectangle x="310" y="35" width="90" height="30" as="alternateBounds" />
          </mxGeometry>
        </mxCell>
        <mxCell id="7Je8JfRFFsogZQXXaHUT-2" value="&lt;b&gt;PK: idReporte&lt;/b&gt;&lt;div&gt;&lt;span style=&quot;background-color: transparent; color: light-dark(rgb(0, 0, 0), rgb(255, 255, 255));&quot;&gt;&lt;span style=&quot;white-space: pre;&quot;&gt;&#x9;&lt;/span&gt;nivelInforme&amp;nbsp;&lt;/span&gt;&lt;u style=&quot;background-color: transparent; color: light-dark(rgb(0, 0, 0), rgb(255, 255, 255));&quot;&gt;VARCHAR(50&lt;/u&gt;&lt;u style=&quot;background-color: transparent; color: light-dark(rgb(0, 0, 0), rgb(255, 255, 255));&quot;&gt;)&lt;/u&gt;&lt;/div&gt;&lt;div&gt;&lt;span style=&quot;background-color: transparent; color: light-dark(rgb(0, 0, 0), rgb(255, 255, 255));&quot;&gt;&lt;span style=&quot;white-space: pre;&quot;&gt;&#x9;&lt;/span&gt;fechaInforme&amp;nbsp;&lt;/span&gt;&lt;u style=&quot;background-color: transparent; color: light-dark(rgb(0, 0, 0), rgb(255, 255, 255));&quot;&gt;DATE&lt;/u&gt;&lt;span style=&quot;background-color: transparent; color: light-dark(rgb(0, 0, 0), rgb(255, 255, 255));&quot;&gt;&lt;br&gt;&lt;/span&gt;&lt;/div&gt;&lt;div&gt;&lt;b style=&quot;background-color: transparent; color: light-dark(rgb(0, 0, 0), rgb(255, 255, 255));&quot;&gt;FK: idManager&lt;/b&gt;&lt;/div&gt;" style="text;strokeColor=none;fillColor=none;align=left;verticalAlign=top;spacingLeft=4;spacingRight=4;overflow=hidden;rotatable=0;points=[[0,0.5],[1,0.5]];portConstraint=eastwest;whiteSpace=wrap;html=1;" vertex="1" parent="7Je8JfRFFsogZQXXaHUT-1">
          <mxGeometry y="26" width="225" height="71" as="geometry" />
        </mxCell>
        <mxCell id="7Je8JfRFFsogZQXXaHUT-3" value="" style="endArrow=classicThin;html=1;rounded=0;entryX=0;entryY=0.5;entryDx=0;entryDy=0;endFill=1;exitX=0.506;exitY=1.034;exitDx=0;exitDy=0;exitPerimeter=0;" edge="1" parent="1" source="AYDeT9yCGTaLC1cTmOf2-153" target="AgZVTCcGgScrFRUxfFw7-13">
          <mxGeometry x="-0.0027" relative="1" as="geometry">
            <mxPoint x="988" y="580" as="sourcePoint" />
            <mxPoint x="988" y="680" as="targetPoint" />
            <mxPoint as="offset" />
          </mxGeometry>
        </mxCell>
        <mxCell id="7Je8JfRFFsogZQXXaHUT-4" value="N" style="resizable=0;html=1;whiteSpace=wrap;align=right;verticalAlign=middle;fontStyle=1;fontSize=12;labelPosition=left;verticalLabelPosition=middle;spacingLeft=0;spacingBottom=-20;spacingRight=3;" connectable="0" vertex="1" parent="7Je8JfRFFsogZQXXaHUT-3">
          <mxGeometry x="-1" relative="1" as="geometry" />
        </mxCell>
        <mxCell id="7Je8JfRFFsogZQXXaHUT-5" value="1" style="resizable=0;html=1;whiteSpace=wrap;align=right;verticalAlign=bottom;fontStyle=1" connectable="0" vertex="1" parent="7Je8JfRFFsogZQXXaHUT-3">
          <mxGeometry x="1" relative="1" as="geometry">
            <mxPoint x="-10" y="10" as="offset" />
          </mxGeometry>
        </mxCell>
        <mxCell id="7Je8JfRFFsogZQXXaHUT-7" value="Detalle Orden" style="swimlane;fontStyle=1;align=center;verticalAlign=top;childLayout=stackLayout;horizontal=1;startSize=26;horizontalStack=0;resizeParent=1;resizeParentMax=0;resizeLast=0;collapsible=1;marginBottom=0;whiteSpace=wrap;html=1;" vertex="1" parent="1">
          <mxGeometry x="1050" y="300" width="210" height="95" as="geometry">
            <mxRectangle x="560" y="35" width="70" height="30" as="alternateBounds" />
          </mxGeometry>
        </mxCell>
        <mxCell id="7Je8JfRFFsogZQXXaHUT-8" value="&lt;b&gt;FK: idOrden&lt;/b&gt;&lt;div&gt;&lt;b&gt;FK: idItem&lt;/b&gt;&lt;b&gt;&lt;br&gt;&lt;/b&gt;&lt;div&gt;&lt;span style=&quot;font-weight: bold; white-space: pre;&quot;&gt;&#x9;&lt;/span&gt;cantidad &lt;u&gt;INT&lt;/u&gt;&lt;br&gt;&lt;/div&gt;&lt;div&gt;&lt;span style=&quot;background-color: transparent; color: light-dark(rgb(0, 0, 0), rgb(255, 255, 255));&quot;&gt;&lt;span style=&quot;text-decoration-line: underline; white-space: pre;&quot;&gt;&#x9;&lt;/span&gt;precioUnitario&amp;nbsp;&lt;u&gt;DECIMAL&lt;/u&gt;&lt;br&gt;&lt;/span&gt;&lt;/div&gt;&lt;/div&gt;" style="text;strokeColor=none;fillColor=none;align=left;verticalAlign=top;spacingLeft=4;spacingRight=4;overflow=hidden;rotatable=0;points=[[0,0.5],[1,0.5]];portConstraint=eastwest;whiteSpace=wrap;html=1;" vertex="1" parent="7Je8JfRFFsogZQXXaHUT-7">
          <mxGeometry y="26" width="210" height="69" as="geometry" />
        </mxCell>
        <mxCell id="7Je8JfRFFsogZQXXaHUT-9" value="" style="endArrow=classic;html=1;rounded=0;endFill=1;entryX=0;entryY=0.5;entryDx=0;entryDy=0;exitX=1;exitY=0;exitDx=0;exitDy=0;startFill=1;startArrow=classicThin;" edge="1" parent="1" source="AYDeT9yCGTaLC1cTmOf2-152" target="7Je8JfRFFsogZQXXaHUT-8">
          <mxGeometry relative="1" as="geometry">
            <mxPoint x="1318" y="477" as="sourcePoint" />
            <mxPoint x="1396" y="367" as="targetPoint" />
            <Array as="points" />
          </mxGeometry>
        </mxCell>
        <mxCell id="7Je8JfRFFsogZQXXaHUT-10" value="1" style="resizable=0;html=1;whiteSpace=wrap;align=left;verticalAlign=bottom;fontStyle=1" connectable="0" vertex="1" parent="7Je8JfRFFsogZQXXaHUT-9">
          <mxGeometry x="-1" relative="1" as="geometry">
            <mxPoint y="-11" as="offset" />
          </mxGeometry>
        </mxCell>
        <mxCell id="7Je8JfRFFsogZQXXaHUT-11" value="N" style="resizable=0;html=1;whiteSpace=wrap;align=right;verticalAlign=bottom;fontStyle=1" connectable="0" vertex="1" parent="7Je8JfRFFsogZQXXaHUT-9">
          <mxGeometry x="1" relative="1" as="geometry" />
        </mxCell>
        <mxCell id="7Je8JfRFFsogZQXXaHUT-12" value="" style="endArrow=classic;html=1;rounded=0;endFill=1;entryX=0;entryY=0.5;entryDx=0;entryDy=0;startFill=1;startArrow=classicThin;exitX=1;exitY=0;exitDx=0;exitDy=0;" edge="1" parent="1" source="7Je8JfRFFsogZQXXaHUT-7" target="AYDeT9yCGTaLC1cTmOf2-167">
          <mxGeometry relative="1" as="geometry">
            <mxPoint x="1250" y="304" as="sourcePoint" />
            <mxPoint x="1345" y="418" as="targetPoint" />
            <Array as="points" />
          </mxGeometry>
        </mxCell>
        <mxCell id="7Je8JfRFFsogZQXXaHUT-13" value="N" style="resizable=0;html=1;whiteSpace=wrap;align=left;verticalAlign=bottom;fontStyle=1" connectable="0" vertex="1" parent="7Je8JfRFFsogZQXXaHUT-12">
          <mxGeometry x="-1" relative="1" as="geometry">
            <mxPoint y="-11" as="offset" />
          </mxGeometry>
        </mxCell>
        <mxCell id="7Je8JfRFFsogZQXXaHUT-14" value="1" style="resizable=0;html=1;whiteSpace=wrap;align=right;verticalAlign=bottom;fontStyle=1" connectable="0" vertex="1" parent="7Je8JfRFFsogZQXXaHUT-12">
          <mxGeometry x="1" relative="1" as="geometry" />
        </mxCell>
        <mxCell id="7Je8JfRFFsogZQXXaHUT-15" value="Transacción Pago" style="swimlane;fontStyle=1;align=center;verticalAlign=top;childLayout=stackLayout;horizontal=1;startSize=26;horizontalStack=0;resizeParent=1;resizeParentMax=0;resizeLast=0;collapsible=1;marginBottom=0;whiteSpace=wrap;html=1;" vertex="1" parent="1">
          <mxGeometry x="682" y="808" width="148" height="154" as="geometry">
            <mxRectangle x="560" y="35" width="70" height="30" as="alternateBounds" />
          </mxGeometry>
        </mxCell>
        <mxCell id="7Je8JfRFFsogZQXXaHUT-16" value="&lt;b&gt;PK: idTransacción&lt;br&gt;&lt;/b&gt;&lt;div&gt;&lt;b&gt;&lt;span style=&quot;background-color: transparent; color: light-dark(rgb(0, 0, 0), rgb(255, 255, 255));&quot;&gt;FK:&amp;nbsp;&lt;/span&gt;&lt;span style=&quot;background-color: transparent; color: light-dark(rgb(0, 0, 0), rgb(255, 255, 255));&quot;&gt;idUsuario &lt;u&gt;INT&lt;/u&gt;&lt;/span&gt;&lt;/b&gt;&lt;/div&gt;&lt;div&gt;&lt;b&gt;&lt;span style=&quot;background-color: transparent; color: light-dark(rgb(0, 0, 0), rgb(255, 255, 255));&quot;&gt;FK:&amp;nbsp;&lt;/span&gt;&lt;span style=&quot;background-color: transparent; color: light-dark(rgb(0, 0, 0), rgb(255, 255, 255));&quot;&gt;idCajero&amp;nbsp;&lt;/span&gt;&lt;u style=&quot;background-color: transparent; color: light-dark(rgb(0, 0, 0), rgb(255, 255, 255));&quot;&gt;INT&lt;/u&gt;&lt;span style=&quot;background-color: transparent; color: light-dark(rgb(0, 0, 0), rgb(255, 255, 255));&quot;&gt;&lt;br&gt;&lt;/span&gt;&lt;/b&gt;&lt;/div&gt;&lt;div&gt;&lt;b style=&quot;background-color: transparent; color: light-dark(rgb(0, 0, 0), rgb(255, 255, 255));&quot;&gt;FK:&amp;nbsp;&lt;/b&gt;&lt;span style=&quot;background-color: transparent; color: light-dark(rgb(0, 0, 0), rgb(255, 255, 255));&quot;&gt;&lt;b&gt;idOrden&lt;/b&gt;&lt;br&gt;&lt;/span&gt;&lt;/div&gt;&lt;div&gt;&lt;span style=&quot;background-color: transparent; color: light-dark(rgb(0, 0, 0), rgb(255, 255, 255));&quot;&gt;&lt;span style=&quot;white-space: pre;&quot;&gt;&#x9;&lt;/span&gt;pagoTotal &lt;u&gt;DECIMAL&lt;/u&gt;&lt;br&gt;&lt;/span&gt;&lt;/div&gt;&lt;div&gt;&lt;span style=&quot;background-color: transparent; color: light-dark(rgb(0, 0, 0), rgb(255, 255, 255));&quot;&gt;&lt;span style=&quot;text-decoration-line: underline; white-space: pre;&quot;&gt;&#x9;&lt;/span&gt;fechaPago &lt;u&gt;DATETIME&lt;/u&gt;&lt;br&gt;&lt;/span&gt;&lt;/div&gt;&lt;div&gt;&lt;b style=&quot;background-color: transparent; color: light-dark(rgb(0, 0, 0), rgb(255, 255, 255));&quot;&gt;FK: idRestaurante&lt;/b&gt;&lt;/div&gt;" style="text;strokeColor=none;fillColor=none;align=left;verticalAlign=top;spacingLeft=4;spacingRight=4;overflow=hidden;rotatable=0;points=[[0,0.5],[1,0.5]];portConstraint=eastwest;whiteSpace=wrap;html=1;" vertex="1" parent="7Je8JfRFFsogZQXXaHUT-15">
          <mxGeometry y="26" width="148" height="128" as="geometry" />
        </mxCell>
        <mxCell id="7Je8JfRFFsogZQXXaHUT-17" value="" style="endArrow=classic;html=1;rounded=0;endFill=1;entryX=0;entryY=0.5;entryDx=0;entryDy=0;exitX=0.5;exitY=0;exitDx=0;exitDy=0;startFill=1;startArrow=classicThin;" edge="1" parent="1" source="AYDeT9yCGTaLC1cTmOf2-130" target="7Je8JfRFFsogZQXXaHUT-2">
          <mxGeometry relative="1" as="geometry">
            <mxPoint x="641" y="335" as="sourcePoint" />
            <mxPoint x="719" y="225" as="targetPoint" />
            <Array as="points" />
          </mxGeometry>
        </mxCell>
        <mxCell id="7Je8JfRFFsogZQXXaHUT-18" value="1" style="resizable=0;html=1;whiteSpace=wrap;align=left;verticalAlign=bottom;fontStyle=1" connectable="0" vertex="1" parent="7Je8JfRFFsogZQXXaHUT-17">
          <mxGeometry x="-1" relative="1" as="geometry">
            <mxPoint y="-11" as="offset" />
          </mxGeometry>
        </mxCell>
        <mxCell id="7Je8JfRFFsogZQXXaHUT-19" value="N" style="resizable=0;html=1;whiteSpace=wrap;align=right;verticalAlign=bottom;fontStyle=1" connectable="0" vertex="1" parent="7Je8JfRFFsogZQXXaHUT-17">
          <mxGeometry x="1" relative="1" as="geometry" />
        </mxCell>
        <mxCell id="7Je8JfRFFsogZQXXaHUT-20" value="" style="endArrow=classicThin;html=1;rounded=0;endFill=1;entryX=1;entryY=0.5;entryDx=0;entryDy=0;" edge="1" parent="1" target="7Je8JfRFFsogZQXXaHUT-16">
          <mxGeometry x="0.0103" relative="1" as="geometry">
            <mxPoint x="1082" y="897" as="sourcePoint" />
            <mxPoint x="1019" y="894" as="targetPoint" />
            <mxPoint as="offset" />
          </mxGeometry>
        </mxCell>
        <mxCell id="7Je8JfRFFsogZQXXaHUT-21" value="1" style="resizable=0;html=1;whiteSpace=wrap;align=left;verticalAlign=bottom;fontStyle=1;spacingTop=0;spacingBottom=-17;spacingLeft=-12;" connectable="0" vertex="1" parent="7Je8JfRFFsogZQXXaHUT-20">
          <mxGeometry x="-1" relative="1" as="geometry">
            <mxPoint x="2" y="-16" as="offset" />
          </mxGeometry>
        </mxCell>
        <mxCell id="7Je8JfRFFsogZQXXaHUT-22" value="N" style="resizable=0;html=1;whiteSpace=wrap;align=right;verticalAlign=bottom;fontStyle=1;spacingLeft=0;spacingRight=2;" connectable="0" vertex="1" parent="7Je8JfRFFsogZQXXaHUT-20">
          <mxGeometry x="1" relative="1" as="geometry">
            <mxPoint x="18" y="-6" as="offset" />
          </mxGeometry>
        </mxCell>
        <mxCell id="7Je8JfRFFsogZQXXaHUT-24" value="" style="endArrow=classicThin;html=1;rounded=0;endFill=1;entryX=0.014;entryY=0.439;entryDx=0;entryDy=0;entryPerimeter=0;exitX=1.02;exitY=0.397;exitDx=0;exitDy=0;exitPerimeter=0;" edge="1" parent="1" source="AgZVTCcGgScrFRUxfFw7-25" target="7Je8JfRFFsogZQXXaHUT-16">
          <mxGeometry x="0.0103" relative="1" as="geometry">
            <mxPoint x="830" y="1010" as="sourcePoint" />
            <mxPoint x="578" y="1011" as="targetPoint" />
            <mxPoint as="offset" />
          </mxGeometry>
        </mxCell>
        <mxCell id="7Je8JfRFFsogZQXXaHUT-25" value="1" style="resizable=0;html=1;whiteSpace=wrap;align=left;verticalAlign=bottom;fontStyle=1;spacingTop=0;spacingBottom=-17;spacingLeft=-12;" connectable="0" vertex="1" parent="7Je8JfRFFsogZQXXaHUT-24">
          <mxGeometry x="-1" relative="1" as="geometry">
            <mxPoint x="14" y="-17" as="offset" />
          </mxGeometry>
        </mxCell>
        <mxCell id="7Je8JfRFFsogZQXXaHUT-26" value="N" style="resizable=0;html=1;whiteSpace=wrap;align=right;verticalAlign=bottom;fontStyle=1;spacingLeft=0;spacingRight=2;" connectable="0" vertex="1" parent="7Je8JfRFFsogZQXXaHUT-24">
          <mxGeometry x="1" relative="1" as="geometry">
            <mxPoint x="-5" y="-2" as="offset" />
          </mxGeometry>
        </mxCell>
      </root>
    </mxGraphModel>
  </diagram>
</mxfile>
